<svg width="22" height="23" viewBox="0 0 22 23" fill="none" xmlns="http://www.w3.org/2000/svg">
<path fill-rule="evenodd" clip-rule="evenodd" d="M10.9653 0C8.46526 0 0.688918 5.05278 0.465316 5.5C-0.0346728 6.5 -0.0346521 15 0.465316 16.5C0.818848 17.5607 8.96533 23 10.4653 23C12.4653 23 21.4653 18 21.4653 16.5C21.4653 16.1311 21.5258 15.3387 21.6021 14.3386C21.8362 11.2725 22.2193 6.25405 21.4653 5.5C21.0567 5.09146 19.6468 4.09876 17.9514 3.0674C14.5348 4.7683 8.60502 7.7427 8.26799 8.69123C8.09034 9.19123 8.09034 12 8.09034 14L5.76799 11L4.09034 12C4.09034 10.3333 4.09034 8 4.26795 6.5C4.36288 5.69833 10.5228 2.54229 14.0506 0.954513C12.8124 0.38487 11.6964 0 10.9653 0Z" fill="#3D872A"/>
</svg>
