<svg width="32" height="19" viewBox="0 0 32 19" fill="none" xmlns="http://www.w3.org/2000/svg">
<circle cx="24.1097" cy="16" r="3" fill="#3D872A"/>
<circle cx="8.10974" cy="16" r="3" fill="#3D872A"/>
<path fill-rule="evenodd" clip-rule="evenodd" d="M3.6097 15.5C1.60966 16 0.109747 14.5 0.109744 13.5C0.109742 13.103 0.095181 12.6995 0.0807144 12.2986C0.0286934 10.8571 -0.0221034 9.44945 0.609744 8.5C1.2295 7.56872 3.17545 7.14854 3.60967 7.2209C4.27634 5.05422 6.3097 0.620861 9.1097 0.220861C11.9097 -0.179139 16.6097 0.054194 18.6097 0.220861C19.6097 0.387527 22.2097 2.02087 24.6097 7.2209C27.6097 7.22095 31.1097 7.72095 31.6097 9.72095C32.0097 11.3209 32.1097 12.7209 31.6097 14.2209C31.1097 15.2209 30.2097 15.7209 28.6097 15.7209L28.5868 15.6291C28.0937 13.6536 27.5562 11.5 24.1097 11.5C20.5097 11.5 19.6097 14.8333 19.6097 16.5H12.6097C12.7764 14.8333 12.1097 11.5 8.1097 11.5C4.1097 11.5 3.6097 14 3.6097 15.5ZM13.0522 6.50002V2.50002H9.99463C8.04781 2.5 7.41896 5.02675 7.07944 6.3909L7.05225 6.50002H13.0522ZM15.1099 2.5V6.5H21.1099C20.7765 5.16667 19.8099 2.5 18.6099 2.5H15.1099Z" fill="#3D872A"/>
</svg>
