<svg width="41" height="40" viewBox="0 0 41 40" fill="none" xmlns="http://www.w3.org/2000/svg">
<circle cx="20.5" cy="20" r="20" fill="white"/>
<path fill-rule="evenodd" clip-rule="evenodd" d="M20.5265 4C18.5265 4 17.3598 5.33333 17.0265 6C14.3598 12.3333 8.92646 26.2 8.52647 31C8.12647 35.8 12.3598 36 14.5265 35.5L20.5265 32.5L26.5265 35.5C28.6931 36 32.9265 35.8 32.5265 31C32.1265 26.2 26.6931 12.3333 24.0265 6C23.6931 5.33333 22.5265 4 20.5265 4Z" fill="#87027B"/>
<path d="M31.6368 21.4708L29.3906 15.1067C29.1857 14.5262 29.5501 13.9011 30.1649 13.8698C32.1681 13.7677 35.0154 14.2025 36 16.5C37.0095 18.8554 34.7873 20.9042 32.9648 21.9915C32.461 22.2921 31.832 22.024 31.6368 21.4708Z" fill="#87027B"/>
<path d="M9.1158 21.4708L11.3619 15.1067C11.5668 14.5262 11.2024 13.9011 10.5876 13.8698C8.5845 13.7677 5.73719 14.2025 4.75256 16.5C3.74309 18.8554 5.96527 20.9042 7.78775 21.9915C8.29161 22.2921 8.92053 22.024 9.1158 21.4708Z" fill="#87027B"/>
</svg>
